# This file uses centimeters as units for non-parametric coordinates.

mtllib eb_metal_shelf_01.mtl
g default
v -47.982971 0.000000 1.465458
v -48.753407 0.000000 0.405045
v -50.000000 0.000000 0.000000
v -51.246593 0.000000 0.405045
v -52.017029 0.000000 1.465458
v -52.017029 0.000000 2.776203
v -51.246593 0.000000 3.836617
v -50.000000 0.000000 4.241661
v -48.753407 0.000000 3.836617
v -47.982971 0.000000 2.776203
v -47.982971 160.528214 1.465458
v -48.753407 160.528214 0.405045
v -50.000000 160.528214 0.000000
v -51.246593 160.528214 0.405045
v -52.017029 160.528214 1.465458
v -52.017029 160.528214 2.776203
v -51.246593 160.528214 3.836617
v -50.000000 160.528214 4.241661
v -48.753407 160.528214 3.836617
v -47.982971 160.528214 2.776203
v -50.000000 0.000000 2.120831
v -50.000000 160.528214 2.120831
v -47.982971 0.000000 36.228661
v -48.753407 0.000000 35.168247
v -50.000000 0.000000 34.763203
v -51.246593 0.000000 35.168247
v -52.017029 0.000000 36.228661
v -52.017029 0.000000 37.539406
v -51.246593 0.000000 38.599819
v -50.000000 0.000000 39.004864
v -48.753407 0.000000 38.599819
v -47.982971 0.000000 37.539406
v -47.982971 160.528214 36.228661
v -48.753407 160.528214 35.168247
v -50.000000 160.528214 34.763203
v -51.246593 160.528214 35.168247
v -52.017029 160.528214 36.228661
v -52.017029 160.528214 37.539406
v -51.246593 160.528214 38.599819
v -50.000000 160.528214 39.004864
v -48.753407 160.528214 38.599819
v -47.982971 160.528214 37.539406
v -50.000000 0.000000 36.884033
v -50.000000 160.528214 36.884033
v 47.982971 0.000000 37.539406
v 48.753407 0.000000 38.599819
v 50.000000 0.000000 39.004864
v 51.246593 0.000000 38.599819
v 52.017029 0.000000 37.539406
v 52.017029 0.000000 36.228661
v 51.246593 0.000000 35.168247
v 50.000000 0.000000 34.763203
v 48.753407 0.000000 35.168247
v 47.982971 0.000000 36.228661
v 47.982971 160.528214 37.539406
v 48.753407 160.528214 38.599819
v 50.000000 160.528214 39.004864
v 51.246593 160.528214 38.599819
v 52.017029 160.528214 37.539406
v 52.017029 160.528214 36.228661
v 51.246593 160.528214 35.168247
v 50.000000 160.528214 34.763203
v 48.753407 160.528214 35.168247
v 47.982971 160.528214 36.228661
v 50.000000 0.000000 36.884033
v 50.000000 160.528214 36.884033
v 47.982971 0.000000 2.776203
v 48.753407 0.000000 3.836617
v 50.000000 0.000000 4.241661
v 51.246593 0.000000 3.836617
v 52.017029 0.000000 2.776203
v 52.017029 0.000000 1.465458
v 51.246593 0.000000 0.405045
v 50.000000 0.000000 0.000000
v 48.753407 0.000000 0.405045
v 47.982971 0.000000 1.465458
v 47.982971 160.528214 2.776203
v 48.753407 160.528214 3.836617
v 50.000000 160.528214 4.241661
v 51.246593 160.528214 3.836617
v 52.017029 160.528214 2.776203
v 52.017029 160.528214 1.465458
v 51.246593 160.528214 0.405045
v 50.000000 160.528214 0.000000
v 48.753407 160.528214 0.405045
v 47.982971 160.528214 1.465458
v 50.000000 0.000000 2.120831
v 50.000000 160.528214 2.120831
v -47.237717 153.577072 34.898804
v 47.284599 153.577072 34.898804
v 47.284599 153.577072 4.136959
v -47.237717 153.577072 4.136959
v -47.237717 153.977142 34.898804
v 47.284599 153.977142 34.898804
v -47.237717 153.977142 4.136959
v 47.284599 153.977142 4.136959
v -49.737717 153.977142 37.398804
v 49.784599 153.977142 37.398804
v -49.737717 153.977142 1.636959
v 49.784599 153.977142 1.636959
v -47.237717 153.015320 34.898804
v 47.284599 153.015320 34.898804
v -49.737717 153.015320 37.398804
v 49.784599 153.015320 37.398804
v -47.237717 153.015320 4.136959
v 47.284599 153.015320 4.136959
v 49.784599 153.015320 1.636959
v -49.737717 153.015320 1.636959
v -47.237717 117.873627 34.898804
v 47.284599 117.873627 34.898804
v 47.284599 117.873627 4.136959
v -47.237717 117.873627 4.136959
v -47.237717 118.273697 34.898804
v 47.284599 118.273697 34.898804
v -47.237717 118.273697 4.136959
v 47.284599 118.273697 4.136959
v -49.737717 118.273697 37.398804
v 49.784599 118.273697 37.398804
v -49.737717 118.273697 1.636959
v 49.784599 118.273697 1.636959
v -47.237717 117.311874 34.898804
v 47.284599 117.311874 34.898804
v -49.737717 117.311874 37.398804
v 49.784599 117.311874 37.398804
v -47.237717 117.311874 4.136959
v 47.284599 117.311874 4.136959
v 49.784599 117.311874 1.636959
v -49.737717 117.311874 1.636959
v -47.237717 82.170197 4.136959
v 47.284599 82.170197 4.136959
v 47.284599 82.170197 34.898804
v -47.237717 82.170197 34.898804
v -47.237717 82.570267 4.136959
v 47.284599 82.570267 4.136959
v -47.237717 82.570267 34.898804
v 47.284599 82.570267 34.898804
v -49.737717 82.570267 1.636959
v 49.784599 82.570267 1.636959
v -49.737717 82.570267 37.398804
v 49.784599 82.570267 37.398804
v -47.237717 81.608444 4.136959
v 47.284599 81.608444 4.136959
v -49.737717 81.608444 1.636959
v 49.784599 81.608444 1.636959
v -47.237717 81.608444 34.898804
v 47.284599 81.608444 34.898804
v 49.784599 81.608444 37.398804
v -49.737717 81.608444 37.398804
v 47.284599 46.466759 4.136959
v -47.237717 46.466759 4.136959
v -47.237717 46.466759 34.898804
v 47.284599 46.466759 34.898804
v 47.284599 46.866829 4.136959
v -47.237717 46.866829 4.136959
v 47.284599 46.866829 34.898804
v -47.237717 46.866829 34.898804
v 49.784599 46.866829 1.636959
v -49.737717 46.866829 1.636959
v 49.784599 46.866829 37.398804
v -49.737717 46.866829 37.398804
v 47.284599 45.905006 4.136959
v -47.237717 45.905006 4.136959
v 49.784599 45.905006 1.636959
v -49.737717 45.905006 1.636959
v 47.284599 45.905006 34.898804
v -47.237717 45.905006 34.898804
v -49.737717 45.905006 37.398804
v 49.784599 45.905006 37.398804
v -47.237717 10.763336 34.898804
v 47.284599 10.763336 34.898804
v 47.284599 10.763336 4.136959
v -47.237717 10.763336 4.136959
v -47.237717 11.163406 34.898804
v 47.284599 11.163406 34.898804
v -47.237717 11.163406 4.136959
v 47.284599 11.163406 4.136959
v -49.737717 11.163406 37.398804
v 49.784599 11.163406 37.398804
v -49.737717 11.163406 1.636959
v 49.784599 11.163406 1.636959
v -47.237717 10.201584 34.898804
v 47.284599 10.201584 34.898804
v -49.737717 10.201584 37.398804
v 49.784599 10.201584 37.398804
v -47.237717 10.201584 4.136959
v 47.284599 10.201584 4.136959
v 49.784599 10.201584 1.636959
v -49.737717 10.201584 1.636959
vt 0.076221 0.993592
vt 0.076221 0.009309
vt 0.082480 0.009309
vt 0.082480 0.993592
vt 0.088739 0.009309
vt 0.088739 0.993592
vt 0.094998 0.009309
vt 0.094998 0.993592
vt 0.101257 0.009309
vt 0.101257 0.993592
vt 0.107516 0.009309
vt 0.107516 0.993592
vt 0.113775 0.009309
vt 0.113775 0.993592
vt 0.120034 0.009309
vt 0.120034 0.993592
vt 0.126293 0.009309
vt 0.126293 0.993592
vt 0.132552 0.009309
vt 0.132552 0.993592
vt 0.138811 0.009309
vt 0.138811 0.993592
vt 0.603601 0.957500
vt 0.606892 0.967628
vt 0.589873 0.966973
vt 0.594985 0.951240
vt 0.584335 0.951240
vt 0.575719 0.957500
vt 0.572429 0.967629
vt 0.575720 0.977757
vt 0.584336 0.984017
vt 0.594985 0.984016
vt 0.603601 0.977757
vt 0.652049 0.969225
vt 0.666075 0.979619
vt 0.657638 0.986119
vt 0.646993 0.986418
vt 0.638205 0.980403
vt 0.634630 0.970371
vt 0.637635 0.960154
vt 0.646071 0.953655
vt 0.656717 0.953355
vt 0.665505 0.959370
vt 0.669079 0.969402
vt 0.007720 0.993592
vt 0.007720 0.009309
vt 0.013979 0.009309
vt 0.013979 0.993592
vt 0.020237 0.009309
vt 0.020237 0.993592
vt 0.026496 0.009309
vt 0.026496 0.993592
vt 0.032755 0.009309
vt 0.032755 0.993592
vt 0.039014 0.009309
vt 0.039014 0.993592
vt 0.045273 0.009309
vt 0.045273 0.993592
vt 0.051532 0.009309
vt 0.051532 0.993592
vt 0.057791 0.009309
vt 0.057791 0.993592
vt 0.064050 0.009309
vt 0.064050 0.993592
vt 0.070309 0.009309
vt 0.070309 0.993592
vt 0.348233 0.961483
vt 0.351524 0.971611
vt 0.334505 0.970956
vt 0.339617 0.955223
vt 0.328967 0.955223
vt 0.320351 0.961483
vt 0.317061 0.971612
vt 0.320352 0.981740
vt 0.328968 0.988000
vt 0.339617 0.987999
vt 0.348233 0.981740
vt 0.394208 0.968632
vt 0.408234 0.979026
vt 0.399797 0.985526
vt 0.389152 0.985825
vt 0.380363 0.979810
vt 0.376789 0.969778
vt 0.379794 0.959561
vt 0.388230 0.953062
vt 0.398875 0.952762
vt 0.407664 0.958777
vt 0.411238 0.968809
vt 0.076221 0.993592
vt 0.076221 0.009309
vt 0.082480 0.009309
vt 0.082480 0.993592
vt 0.088739 0.009309
vt 0.088739 0.993592
vt 0.094998 0.009309
vt 0.094998 0.993592
vt 0.101257 0.009309
vt 0.101257 0.993592
vt 0.107516 0.009309
vt 0.107516 0.993592
vt 0.113775 0.009309
vt 0.113775 0.993592
vt 0.120034 0.009309
vt 0.120034 0.993592
vt 0.126293 0.009309
vt 0.126293 0.993592
vt 0.132552 0.009309
vt 0.132552 0.993592
vt 0.138811 0.009309
vt 0.138811 0.993592
vt 0.267699 0.305346
vt 0.280940 0.346094
vt 0.212472 0.343458
vt 0.233036 0.280163
vt 0.190191 0.280164
vt 0.155529 0.305348
vt 0.142290 0.346097
vt 0.155530 0.386845
vt 0.190193 0.412028
vt 0.233039 0.412027
vt 0.267701 0.386843
vt 0.214639 0.477456
vt 0.271066 0.519271
vt 0.237125 0.545420
vt 0.194297 0.546625
vt 0.158940 0.522426
vt 0.144559 0.482066
vt 0.156648 0.440961
vt 0.190588 0.414813
vt 0.233417 0.413608
vt 0.268774 0.437807
vt 0.283155 0.478167
vt 0.007720 0.993592
vt 0.007720 0.009309
vt 0.013979 0.009309
vt 0.013979 0.993592
vt 0.020237 0.009309
vt 0.020237 0.993592
vt 0.026496 0.009309
vt 0.026496 0.993592
vt 0.032755 0.009309
vt 0.032755 0.993592
vt 0.039014 0.009309
vt 0.039014 0.993592
vt 0.045273 0.009309
vt 0.045273 0.993592
vt 0.051532 0.009309
vt 0.051532 0.993592
vt 0.057791 0.009309
vt 0.057791 0.993592
vt 0.064050 0.009309
vt 0.064050 0.993592
vt 0.070309 0.009309
vt 0.070309 0.993592
vt 0.267699 0.032268
vt 0.280940 0.073016
vt 0.212472 0.070380
vt 0.233036 0.007084
vt 0.190191 0.007085
vt 0.155529 0.032270
vt 0.142290 0.073018
vt 0.155530 0.113766
vt 0.190193 0.138950
vt 0.233039 0.138949
vt 0.267701 0.113764
vt 0.214639 0.204378
vt 0.271066 0.246193
vt 0.237125 0.272341
vt 0.194297 0.273546
vt 0.158940 0.249347
vt 0.144559 0.208988
vt 0.156648 0.167883
vt 0.190588 0.141734
vt 0.233417 0.140529
vt 0.268774 0.164728
vt 0.283155 0.205088
vt 0.673234 0.985184
vt 0.673234 0.014816
vt 0.989035 0.014816
vt 0.989035 0.985184
vt 0.447308 0.027012
vt 0.472328 0.001992
vt 0.472328 0.998008
vt 0.447308 0.972988
vt 0.442130 0.972988
vt 0.417110 0.998008
vt 0.417110 0.001992
vt 0.442130 0.027012
vt 0.608497 0.366566
vt 0.633517 0.341546
vt 0.633517 0.699450
vt 0.608497 0.674430
vt 0.663623 0.674430
vt 0.638603 0.699450
vt 0.638603 0.341546
vt 0.663623 0.366566
vt 0.504639 0.027012
vt 0.504639 0.972988
vt 0.479619 0.998008
vt 0.479619 0.001992
vt 0.512906 0.972988
vt 0.512906 0.027012
vt 0.537926 0.001992
vt 0.537926 0.998008
vt 0.639145 0.337152
vt 0.639145 0.029289
vt 0.664165 0.004269
vt 0.664165 0.362172
vt 0.633546 0.029289
vt 0.633546 0.337152
vt 0.608526 0.362172
vt 0.608526 0.004269
vt 0.577886 0.001992
vt 0.587512 0.001992
vt 0.587512 0.947968
vt 0.577886 0.947968
vt 0.554661 0.998008
vt 0.545035 0.998008
vt 0.545035 0.001992
vt 0.554661 0.001992
vt 0.603938 0.947968
vt 0.594312 0.947968
vt 0.594312 0.001992
vt 0.603938 0.001992
vt 0.561461 0.001992
vt 0.571086 0.001992
vt 0.571086 0.998008
vt 0.561461 0.998008
vt 0.642222 0.949152
vt 0.634799 0.949152
vt 0.634799 0.711758
vt 0.642222 0.711758
vt 0.616890 0.987738
vt 0.609467 0.987738
vt 0.609467 0.711758
vt 0.616890 0.711758
vt 0.654887 0.949152
vt 0.647465 0.949152
vt 0.647465 0.711758
vt 0.654887 0.711758
vt 0.629556 0.987738
vt 0.622133 0.987738
vt 0.622133 0.711758
vt 0.629556 0.711758
vt 0.673234 0.985184
vt 0.673234 0.014816
vt 0.989035 0.014816
vt 0.989035 0.985184
vt 0.191433 0.027012
vt 0.216453 0.001992
vt 0.216453 0.998008
vt 0.191433 0.972988
vt 0.186255 0.972988
vt 0.161235 0.998008
vt 0.161235 0.001992
vt 0.186255 0.027012
vt 0.352623 0.366566
vt 0.377643 0.341546
vt 0.377642 0.699450
vt 0.352623 0.674430
vt 0.407748 0.674430
vt 0.382728 0.699450
vt 0.382728 0.341546
vt 0.407748 0.366566
vt 0.248765 0.027012
vt 0.248765 0.972988
vt 0.223745 0.998008
vt 0.223745 0.001992
vt 0.257031 0.972988
vt 0.257031 0.027012
vt 0.282051 0.001992
vt 0.282051 0.998008
vt 0.383271 0.337152
vt 0.383271 0.029289
vt 0.408291 0.004269
vt 0.408291 0.362172
vt 0.377671 0.029289
vt 0.377671 0.337152
vt 0.352651 0.362172
vt 0.352651 0.004269
vt 0.322011 0.001992
vt 0.331637 0.001992
vt 0.331637 0.947968
vt 0.322011 0.947968
vt 0.298786 0.998008
vt 0.289160 0.998008
vt 0.289160 0.001992
vt 0.298786 0.001992
vt 0.348063 0.947968
vt 0.338437 0.947968
vt 0.338437 0.001992
vt 0.348063 0.001992
vt 0.305586 0.001992
vt 0.315212 0.001992
vt 0.315212 0.998008
vt 0.305586 0.998008
vt 0.386347 0.941350
vt 0.378924 0.941350
vt 0.378924 0.703956
vt 0.386347 0.703956
vt 0.361015 0.979936
vt 0.353593 0.979936
vt 0.353593 0.703956
vt 0.361015 0.703956
vt 0.399013 0.941350
vt 0.391590 0.941350
vt 0.391590 0.703956
vt 0.399013 0.703956
vt 0.373681 0.979936
vt 0.366259 0.979936
vt 0.366259 0.703956
vt 0.373681 0.703956
vt 0.673234 0.985184
vt 0.989035 0.985184
vt 0.989035 0.014816
vt 0.673234 0.014816
vt 0.191433 0.027012
vt 0.191433 0.972988
vt 0.216453 0.998008
vt 0.216453 0.001992
vt 0.186255 0.972988
vt 0.186255 0.027012
vt 0.161235 0.001992
vt 0.161235 0.998008
vt 0.352623 0.366566
vt 0.352623 0.674430
vt 0.377642 0.699450
vt 0.377643 0.341546
vt 0.407748 0.674430
vt 0.407748 0.366566
vt 0.382728 0.341546
vt 0.382728 0.699450
vt 0.248765 0.027012
vt 0.223745 0.001992
vt 0.223745 0.998008
vt 0.248765 0.972988
vt 0.257031 0.972988
vt 0.282051 0.998008
vt 0.282051 0.001992
vt 0.257031 0.027012
vt 0.383271 0.337152
vt 0.408291 0.362172
vt 0.408291 0.004269
vt 0.383271 0.029289
vt 0.377671 0.029289
vt 0.352651 0.004269
vt 0.352651 0.362172
vt 0.377671 0.337152
vt 0.322011 0.001992
vt 0.322011 0.947968
vt 0.331637 0.947968
vt 0.331637 0.001992
vt 0.298786 0.998008
vt 0.298786 0.001992
vt 0.289160 0.001992
vt 0.289160 0.998008
vt 0.348063 0.947968
vt 0.348063 0.001992
vt 0.338437 0.001992
vt 0.338437 0.947968
vt 0.305586 0.001992
vt 0.305586 0.998008
vt 0.315212 0.998008
vt 0.315212 0.001992
vt 0.386347 0.941350
vt 0.386347 0.703956
vt 0.378924 0.703956
vt 0.378924 0.941350
vt 0.361015 0.979936
vt 0.361015 0.703956
vt 0.353593 0.703956
vt 0.353593 0.979936
vt 0.399013 0.941350
vt 0.399013 0.703956
vt 0.391590 0.703956
vt 0.391590 0.941350
vt 0.373681 0.979936
vt 0.373681 0.703956
vt 0.366259 0.703956
vt 0.366259 0.979936
vt 0.673234 0.985184
vt 0.673234 0.014816
vt 0.989035 0.014816
vt 0.989035 0.985184
vt 0.447308 0.027012
vt 0.472328 0.001992
vt 0.472328 0.998008
vt 0.447308 0.972988
vt 0.442130 0.972988
vt 0.417110 0.998008
vt 0.417110 0.001992
vt 0.442130 0.027012
vt 0.608497 0.366566
vt 0.633517 0.341546
vt 0.633517 0.699450
vt 0.608497 0.674430
vt 0.663623 0.674430
vt 0.638603 0.699450
vt 0.638603 0.341546
vt 0.663623 0.366566
vt 0.504639 0.027012
vt 0.504639 0.972988
vt 0.479619 0.998008
vt 0.479619 0.001992
vt 0.512906 0.972988
vt 0.512906 0.027012
vt 0.537926 0.001992
vt 0.537926 0.998008
vt 0.639145 0.337152
vt 0.639145 0.029289
vt 0.664165 0.004269
vt 0.664165 0.362172
vt 0.633546 0.029289
vt 0.633546 0.337152
vt 0.608526 0.362172
vt 0.608526 0.004269
vt 0.577886 0.001992
vt 0.587512 0.001992
vt 0.587512 0.947968
vt 0.577886 0.947968
vt 0.554661 0.998008
vt 0.545035 0.998008
vt 0.545035 0.001992
vt 0.554661 0.001992
vt 0.603938 0.947968
vt 0.594312 0.947968
vt 0.594312 0.001992
vt 0.603938 0.001992
vt 0.561461 0.001992
vt 0.571086 0.001992
vt 0.571086 0.998008
vt 0.561461 0.998008
vt 0.642222 0.949152
vt 0.634799 0.949152
vt 0.634799 0.711758
vt 0.642222 0.711758
vt 0.616890 0.987738
vt 0.609467 0.987738
vt 0.609467 0.711758
vt 0.616890 0.711758
vt 0.654887 0.949152
vt 0.647465 0.949152
vt 0.647465 0.711758
vt 0.654887 0.711758
vt 0.629556 0.987738
vt 0.622133 0.987738
vt 0.622133 0.711758
vt 0.629556 0.711758
vt 0.673234 0.985184
vt 0.673234 0.014816
vt 0.989035 0.014816
vt 0.989035 0.985184
vt 0.447308 0.027012
vt 0.472328 0.001992
vt 0.472328 0.998008
vt 0.447308 0.972988
vt 0.442130 0.972988
vt 0.417110 0.998008
vt 0.417110 0.001992
vt 0.442130 0.027012
vt 0.608497 0.366566
vt 0.633517 0.341546
vt 0.633517 0.699450
vt 0.608497 0.674430
vt 0.663623 0.674430
vt 0.638603 0.699450
vt 0.638603 0.341546
vt 0.663623 0.366566
vt 0.504639 0.027012
vt 0.504639 0.972988
vt 0.479619 0.998008
vt 0.479619 0.001992
vt 0.512906 0.972988
vt 0.512906 0.027012
vt 0.537926 0.001992
vt 0.537926 0.998008
vt 0.639145 0.337152
vt 0.639145 0.029289
vt 0.664165 0.004269
vt 0.664165 0.362172
vt 0.633546 0.029289
vt 0.633546 0.337152
vt 0.608526 0.362172
vt 0.608526 0.004269
vt 0.577886 0.001992
vt 0.587512 0.001992
vt 0.587512 0.947968
vt 0.577886 0.947968
vt 0.554661 0.998008
vt 0.545035 0.998008
vt 0.545035 0.001992
vt 0.554661 0.001992
vt 0.603938 0.947968
vt 0.594312 0.947968
vt 0.594312 0.001992
vt 0.603938 0.001992
vt 0.561461 0.001992
vt 0.571086 0.001992
vt 0.571086 0.998008
vt 0.561461 0.998008
vt 0.642222 0.949152
vt 0.634799 0.949152
vt 0.634799 0.711758
vt 0.642222 0.711758
vt 0.616890 0.987738
vt 0.609467 0.987738
vt 0.609467 0.711758
vt 0.616890 0.711758
vt 0.654887 0.949152
vt 0.647465 0.949152
vt 0.647465 0.711758
vt 0.654887 0.711758
vt 0.629556 0.987738
vt 0.622133 0.987738
vt 0.622133 0.711758
vt 0.629556 0.711758
vn 0.951057 0.000000 -0.309017
vn 0.951057 0.000000 -0.309017
vn 0.587785 0.000000 -0.809017
vn 0.587785 0.000000 -0.809017
vn 0.587785 0.000000 -0.809017
vn 0.587785 0.000000 -0.809017
vn 0.000000 0.000000 -1.000000
vn 0.000000 0.000000 -1.000000
vn 0.000000 0.000000 -1.000000
vn 0.000000 0.000000 -1.000000
vn -0.587785 0.000000 -0.809017
vn -0.587785 0.000000 -0.809017
vn -0.587785 0.000000 -0.809017
vn -0.587785 0.000000 -0.809017
vn -0.951057 0.000000 -0.309017
vn -0.951057 0.000000 -0.309017
vn -0.951057 0.000000 -0.309017
vn -0.951057 0.000000 -0.309017
vn -0.951057 0.000000 0.309017
vn -0.951057 0.000000 0.309017
vn -0.951057 0.000000 0.309017
vn -0.951057 0.000000 0.309017
vn -0.587785 0.000000 0.809017
vn -0.587785 0.000000 0.809017
vn -0.587785 0.000000 0.809017
vn -0.587785 0.000000 0.809017
vn 0.000000 0.000000 1.000000
vn 0.000000 0.000000 1.000000
vn 0.000000 0.000000 1.000000
vn 0.000000 0.000000 1.000000
vn 0.587785 0.000000 0.809017
vn 0.587785 0.000000 0.809017
vn 0.587785 0.000000 0.809017
vn 0.587785 0.000000 0.809017
vn 0.951057 0.000000 0.309017
vn 0.951057 0.000000 0.309017
vn 0.951057 0.000000 0.309017
vn 0.951057 0.000000 0.309017
vn 0.951057 0.000000 -0.309017
vn 0.951057 0.000000 -0.309017
vn 0.000000 -1.000000 0.000000
vn 0.000000 -1.000000 0.000000
vn 0.000000 -1.000000 0.000000
vn 0.000000 -1.000000 0.000000
vn 0.000000 -1.000000 0.000000
vn 0.000000 -1.000000 0.000000
vn 0.000000 -1.000000 0.000000
vn 0.000000 -1.000000 0.000000
vn 0.000000 -1.000000 0.000000
vn 0.000000 -1.000000 0.000000
vn 0.000000 -1.000000 0.000000
vn 0.000000 -1.000000 0.000000
vn 0.000000 -1.000000 0.000000
vn 0.000000 -1.000000 0.000000
vn 0.000000 -1.000000 0.000000
vn 0.000000 -1.000000 0.000000
vn 0.000000 -1.000000 0.000000
vn 0.000000 -1.000000 0.000000
vn 0.000000 -1.000000 0.000000
vn 0.000000 -1.000000 0.000000
vn 0.000000 -1.000000 0.000000
vn 0.000000 -1.000000 0.000000
vn 0.000000 -1.000000 0.000000
vn 0.000000 -1.000000 0.000000
vn 0.000000 -1.000000 0.000000
vn 0.000000 -1.000000 0.000000
vn 0.000000 -1.000000 0.000000
vn 0.000000 -1.000000 0.000000
vn 0.000000 -1.000000 0.000000
vn 0.000000 -1.000000 0.000000
vn 0.000000 1.000000 0.000000
vn 0.000000 1.000000 -0.000006
vn 0.000000 1.000000 -0.000006
vn 0.000000 1.000000 0.000000
vn 0.000000 1.000000 -0.000006
vn 0.000000 1.000000 0.000000
vn 0.000000 1.000000 0.000000
vn 0.000000 1.000000 0.000000
vn 0.000000 1.000000 0.000000
vn 0.000000 1.000000 0.000000
vn 0.000000 1.000000 0.000000
vn 0.000000 1.000000 0.000000
vn 0.000000 1.000000 0.000000
vn 0.000000 1.000000 0.000000
vn 0.000000 1.000000 0.000006
vn 0.000000 1.000000 0.000000
vn 0.000000 1.000000 0.000006
vn 0.000000 1.000000 0.000006
vn 0.000000 1.000000 0.000000
vn 0.000000 1.000000 0.000006
vn 0.000000 1.000000 0.000000
vn 0.000000 1.000000 0.000000
vn 0.000000 1.000000 0.000000
vn 0.000000 1.000000 0.000000
vn 0.000000 1.000000 0.000000
vn 0.000000 1.000000 0.000000
vn 0.000000 1.000000 0.000000
vn 0.000000 1.000000 0.000000
vn 0.000000 1.000000 0.000000
vn 0.000000 1.000000 -0.000006
vn 0.951057 0.000000 -0.309017
vn 0.951057 0.000000 -0.309017
vn 0.587786 0.000000 -0.809017
vn 0.587786 0.000000 -0.809017
vn 0.587786 0.000000 -0.809017
vn 0.587786 0.000000 -0.809017
vn 0.000000 0.000000 -1.000000
vn 0.000000 0.000000 -1.000000
vn 0.000000 0.000000 -1.000000
vn 0.000000 0.000000 -1.000000
vn -0.587786 0.000000 -0.809017
vn -0.587786 0.000000 -0.809017
vn -0.587786 0.000000 -0.809017
vn -0.587786 0.000000 -0.809017
vn -0.951057 0.000000 -0.309017
vn -0.951057 0.000000 -0.309017
vn -0.951057 0.000000 -0.309017
vn -0.951057 0.000000 -0.309017
vn -0.951057 0.000000 0.309017
vn -0.951057 0.000000 0.309017
vn -0.951057 0.000000 0.309017
vn -0.951057 0.000000 0.309017
vn -0.587785 0.000000 0.809017
vn -0.587785 0.000000 0.809017
vn -0.587785 0.000000 0.809017
vn -0.587785 0.000000 0.809017
vn 0.000000 0.000000 1.000000
vn 0.000000 0.000000 1.000000
vn 0.000000 0.000000 1.000000
vn 0.000000 0.000000 1.000000
vn 0.587785 0.000000 0.809017
vn 0.587785 0.000000 0.809017
vn 0.587785 0.000000 0.809017
vn 0.587785 0.000000 0.809017
vn 0.951057 0.000000 0.309017
vn 0.951057 0.000000 0.309017
vn 0.951057 0.000000 0.309017
vn 0.951057 0.000000 0.309017
vn 0.951057 0.000000 -0.309017
vn 0.951057 0.000000 -0.309017
vn 0.000000 -1.000000 0.000000
vn 0.000000 -1.000000 0.000000
vn 0.000000 -1.000000 0.000000
vn 0.000000 -1.000000 0.000000
vn 0.000000 -1.000000 0.000000
vn 0.000000 -1.000000 0.000000
vn 0.000000 -1.000000 0.000000
vn 0.000000 -1.000000 0.000000
vn 0.000000 -1.000000 0.000000
vn 0.000000 -1.000000 0.000000
vn 0.000000 -1.000000 0.000000
vn 0.000000 -1.000000 0.000000
vn 0.000000 -1.000000 0.000000
vn 0.000000 -1.000000 0.000000
vn 0.000000 -1.000000 0.000000
vn 0.000000 -1.000000 0.000000
vn 0.000000 -1.000000 0.000000
vn 0.000000 -1.000000 0.000000
vn 0.000000 -1.000000 0.000000
vn 0.000000 -1.000000 0.000000
vn 0.000000 -1.000000 0.000000
vn 0.000000 -1.000000 0.000000
vn 0.000000 -1.000000 0.000000
vn 0.000000 -1.000000 0.000000
vn 0.000000 -1.000000 0.000000
vn 0.000000 -1.000000 0.000000
vn 0.000000 -1.000000 0.000000
vn 0.000000 -1.000000 0.000000
vn 0.000000 -1.000000 0.000000
vn 0.000000 -1.000000 0.000000
vn 0.000000 1.000000 0.000000
vn 0.000000 1.000000 -0.000006
vn 0.000000 1.000000 -0.000006
vn 0.000000 1.000000 0.000000
vn 0.000000 1.000000 -0.000006
vn 0.000000 1.000000 0.000000
vn 0.000000 1.000000 0.000000
vn 0.000000 1.000000 0.000000
vn 0.000000 1.000000 0.000000
vn 0.000000 1.000000 0.000000
vn 0.000000 1.000000 0.000000
vn 0.000000 1.000000 0.000000
vn 0.000000 1.000000 0.000000
vn 0.000000 1.000000 0.000000
vn 0.000000 1.000000 0.000006
vn 0.000000 1.000000 0.000000
vn 0.000000 1.000000 0.000006
vn 0.000000 1.000000 0.000006
vn 0.000000 1.000000 0.000000
vn 0.000000 1.000000 0.000006
vn 0.000000 1.000000 0.000000
vn 0.000000 1.000000 0.000000
vn 0.000000 1.000000 0.000000
vn 0.000000 1.000000 0.000000
vn 0.000000 1.000000 0.000000
vn 0.000000 1.000000 0.000000
vn 0.000000 1.000000 0.000000
vn 0.000000 1.000000 0.000000
vn 0.000000 1.000000 0.000000
vn 0.000000 1.000000 -0.000006
vn -0.951057 0.000000 0.309017
vn -0.951057 0.000000 0.309017
vn -0.587785 0.000000 0.809017
vn -0.587785 0.000000 0.809017
vn -0.587785 0.000000 0.809017
vn -0.587785 0.000000 0.809017
vn 0.000000 0.000000 1.000000
vn 0.000000 0.000000 1.000000
vn 0.000000 0.000000 1.000000
vn 0.000000 0.000000 1.000000
vn 0.587785 0.000000 0.809017
vn 0.587785 0.000000 0.809017
vn 0.587785 0.000000 0.809017
vn 0.587785 0.000000 0.809017
vn 0.951057 0.000000 0.309017
vn 0.951057 0.000000 0.309017
vn 0.951057 0.000000 0.309017
vn 0.951057 0.000000 0.309017
vn 0.951057 0.000000 -0.309017
vn 0.951057 0.000000 -0.309017
vn 0.951057 0.000000 -0.309017
vn 0.951057 0.000000 -0.309017
vn 0.587786 0.000000 -0.809017
vn 0.587786 0.000000 -0.809017
vn 0.587786 0.000000 -0.809017
vn 0.587786 0.000000 -0.809017
vn 0.000000 0.000000 -1.000000
vn 0.000000 0.000000 -1.000000
vn 0.000000 0.000000 -1.000000
vn 0.000000 0.000000 -1.000000
vn -0.587786 0.000000 -0.809017
vn -0.587786 0.000000 -0.809017
vn -0.587786 0.000000 -0.809017
vn -0.587786 0.000000 -0.809017
vn -0.951057 0.000000 -0.309017
vn -0.951057 0.000000 -0.309017
vn -0.951057 0.000000 -0.309017
vn -0.951057 0.000000 -0.309017
vn -0.951057 0.000000 0.309017
vn -0.951057 0.000000 0.309017
vn 0.000000 -1.000000 0.000000
vn 0.000000 -1.000000 0.000000
vn 0.000000 -1.000000 0.000000
vn 0.000000 -1.000000 0.000000
vn 0.000000 -1.000000 0.000000
vn 0.000000 -1.000000 0.000000
vn 0.000000 -1.000000 0.000000
vn 0.000000 -1.000000 0.000000
vn 0.000000 -1.000000 0.000000
vn 0.000000 -1.000000 0.000000
vn 0.000000 -1.000000 0.000000
vn 0.000000 -1.000000 0.000000
vn 0.000000 -1.000000 0.000000
vn 0.000000 -1.000000 0.000000
vn 0.000000 -1.000000 0.000000
vn 0.000000 -1.000000 0.000000
vn 0.000000 -1.000000 0.000000
vn 0.000000 -1.000000 0.000000
vn 0.000000 -1.000000 0.000000
vn 0.000000 -1.000000 0.000000
vn 0.000000 -1.000000 0.000000
vn 0.000000 -1.000000 0.000000
vn 0.000000 -1.000000 0.000000
vn 0.000000 -1.000000 0.000000
vn 0.000000 -1.000000 0.000000
vn 0.000000 -1.000000 0.000000
vn 0.000000 -1.000000 0.000000
vn 0.000000 -1.000000 0.000000
vn 0.000000 -1.000000 0.000000
vn 0.000000 -1.000000 0.000000
vn 0.000000 1.000000 0.000000
vn 0.000000 1.000000 0.000006
vn 0.000000 1.000000 0.000006
vn 0.000000 1.000000 0.000000
vn 0.000000 1.000000 0.000006
vn 0.000000 1.000000 0.000000
vn 0.000000 1.000000 0.000000
vn 0.000000 1.000000 0.000000
vn 0.000000 1.000000 0.000000
vn 0.000000 1.000000 0.000000
vn 0.000000 1.000000 0.000000
vn 0.000000 1.000000 0.000000
vn 0.000000 1.000000 0.000000
vn 0.000000 1.000000 0.000000
vn 0.000000 1.000000 -0.000006
vn 0.000000 1.000000 0.000000
vn 0.000000 1.000000 -0.000006
vn 0.000000 1.000000 -0.000006
vn 0.000000 1.000000 0.000000
vn 0.000000 1.000000 -0.000006
vn 0.000000 1.000000 0.000000
vn 0.000000 1.000000 0.000000
vn 0.000000 1.000000 0.000000
vn 0.000000 1.000000 0.000000
vn 0.000000 1.000000 0.000000
vn 0.000000 1.000000 0.000000
vn 0.000000 1.000000 0.000000
vn 0.000000 1.000000 0.000000
vn 0.000000 1.000000 0.000000
vn 0.000000 1.000000 0.000006
vn -0.951057 0.000000 0.309017
vn -0.951057 0.000000 0.309017
vn -0.587785 0.000000 0.809017
vn -0.587785 0.000000 0.809017
vn -0.587785 0.000000 0.809017
vn -0.587785 0.000000 0.809017
vn 0.000000 0.000000 1.000000
vn 0.000000 0.000000 1.000000
vn 0.000000 0.000000 1.000000
vn 0.000000 0.000000 1.000000
vn 0.587785 0.000000 0.809017
vn 0.587785 0.000000 0.809017
vn 0.587785 0.000000 0.809017
vn 0.587785 0.000000 0.809017
vn 0.951057 0.000000 0.309017
vn 0.951057 0.000000 0.309017
vn 0.951057 0.000000 0.309017
vn 0.951057 0.000000 0.309017
vn 0.951057 0.000000 -0.309017
vn 0.951057 0.000000 -0.309017
vn 0.951057 0.000000 -0.309017
vn 0.951057 0.000000 -0.309017
vn 0.587785 0.000000 -0.809017
vn 0.587785 0.000000 -0.809017
vn 0.587785 0.000000 -0.809017
vn 0.587785 0.000000 -0.809017
vn 0.000000 0.000000 -1.000000
vn 0.000000 0.000000 -1.000000
vn 0.000000 0.000000 -1.000000
vn 0.000000 0.000000 -1.000000
vn -0.587785 0.000000 -0.809017
vn -0.587785 0.000000 -0.809017
vn -0.587785 0.000000 -0.809017
vn -0.587785 0.000000 -0.809017
vn -0.951057 0.000000 -0.309017
vn -0.951057 0.000000 -0.309017
vn -0.951057 0.000000 -0.309017
vn -0.951057 0.000000 -0.309017
vn -0.951057 0.000000 0.309017
vn -0.951057 0.000000 0.309017
vn 0.000000 -1.000000 0.000000
vn 0.000000 -1.000000 0.000000
vn 0.000000 -1.000000 0.000000
vn 0.000000 -1.000000 0.000000
vn 0.000000 -1.000000 0.000000
vn 0.000000 -1.000000 0.000000
vn 0.000000 -1.000000 0.000000
vn 0.000000 -1.000000 0.000000
vn 0.000000 -1.000000 0.000000
vn 0.000000 -1.000000 0.000000
vn 0.000000 -1.000000 0.000000
vn 0.000000 -1.000000 0.000000
vn 0.000000 -1.000000 0.000000
vn 0.000000 -1.000000 0.000000
vn 0.000000 -1.000000 0.000000
vn 0.000000 -1.000000 0.000000
vn 0.000000 -1.000000 0.000000
vn 0.000000 -1.000000 0.000000
vn 0.000000 -1.000000 0.000000
vn 0.000000 -1.000000 0.000000
vn 0.000000 -1.000000 0.000000
vn 0.000000 -1.000000 0.000000
vn 0.000000 -1.000000 0.000000
vn 0.000000 -1.000000 0.000000
vn 0.000000 -1.000000 0.000000
vn 0.000000 -1.000000 0.000000
vn 0.000000 -1.000000 0.000000
vn 0.000000 -1.000000 0.000000
vn 0.000000 -1.000000 0.000000
vn 0.000000 -1.000000 0.000000
vn 0.000000 1.000000 0.000000
vn 0.000000 1.000000 0.000006
vn 0.000000 1.000000 0.000006
vn 0.000000 1.000000 0.000000
vn 0.000000 1.000000 0.000006
vn 0.000000 1.000000 0.000000
vn 0.000000 1.000000 0.000000
vn 0.000000 1.000000 0.000000
vn 0.000000 1.000000 0.000000
vn 0.000000 1.000000 0.000000
vn 0.000000 1.000000 0.000000
vn 0.000000 1.000000 0.000000
vn 0.000000 1.000000 0.000000
vn 0.000000 1.000000 0.000000
vn 0.000000 1.000000 -0.000006
vn 0.000000 1.000000 0.000000
vn 0.000000 1.000000 -0.000006
vn 0.000000 1.000000 -0.000006
vn 0.000000 1.000000 0.000000
vn 0.000000 1.000000 -0.000006
vn 0.000000 1.000000 0.000000
vn 0.000000 1.000000 0.000000
vn 0.000000 1.000000 0.000000
vn 0.000000 1.000000 0.000000
vn 0.000000 1.000000 0.000000
vn 0.000000 1.000000 0.000000
vn 0.000000 1.000000 0.000000
vn 0.000000 1.000000 0.000000
vn 0.000000 1.000000 0.000000
vn 0.000000 1.000000 0.000006
vn 0.000000 1.000000 0.000000
vn 0.000000 1.000000 0.000000
vn 0.000000 1.000000 0.000000
vn 0.000000 1.000000 0.000000
vn 0.000000 -1.000000 0.000003
vn 0.000000 -1.000000 0.000003
vn 0.000000 -1.000000 0.000003
vn 0.000000 -1.000000 0.000003
vn 0.000000 -1.000000 -0.000003
vn 0.000000 -1.000000 -0.000003
vn 0.000000 -1.000000 -0.000003
vn 0.000000 -1.000000 -0.000003
vn 0.000000 -1.000000 0.000003
vn 0.000000 -1.000000 0.000003
vn 0.000000 -1.000000 -0.000003
vn 0.000000 -1.000000 -0.000003
vn 0.000000 -1.000000 -0.000003
vn 0.000000 -1.000000 -0.000003
vn 0.000000 -1.000000 0.000003
vn 0.000000 -1.000000 0.000003
vn 0.000000 1.000000 -0.000001
vn 0.000000 1.000000 -0.000001
vn 0.000000 1.000000 -0.000001
vn 0.000000 1.000000 -0.000001
vn 0.000000 1.000000 0.000001
vn 0.000000 1.000000 0.000001
vn 0.000000 1.000000 0.000001
vn 0.000000 1.000000 0.000001
vn 0.000000 1.000000 -0.000001
vn 0.000000 1.000000 0.000001
vn 0.000000 1.000000 0.000001
vn 0.000000 1.000000 -0.000001
vn 0.000000 1.000000 0.000001
vn 0.000000 1.000000 -0.000001
vn 0.000000 1.000000 -0.000001
vn 0.000000 1.000000 0.000001
vn 0.000000 0.000000 -1.000000
vn 0.000000 0.000000 -1.000000
vn 0.000000 0.000000 -1.000000
vn 0.000000 0.000000 -1.000000
vn 0.000000 0.000000 1.000000
vn 0.000000 0.000000 1.000000
vn 0.000000 0.000000 1.000000
vn 0.000000 0.000000 1.000000
vn 0.000000 0.000000 1.000000
vn 0.000000 0.000000 1.000000
vn 0.000000 0.000000 1.000000
vn 0.000000 0.000000 1.000000
vn 0.000000 0.000000 -1.000000
vn 0.000000 0.000000 -1.000000
vn 0.000000 0.000000 -1.000000
vn 0.000000 0.000000 -1.000000
vn 1.000000 0.000000 0.000000
vn 1.000000 0.000000 0.000000
vn 1.000000 0.000000 0.000000
vn 1.000000 0.000000 0.000000
vn -1.000000 0.000000 0.000000
vn -1.000000 0.000000 0.000000
vn -1.000000 0.000000 0.000000
vn -1.000000 0.000000 0.000000
vn -1.000000 0.000000 0.000000
vn -1.000000 0.000000 0.000000
vn -1.000000 0.000000 0.000000
vn -1.000000 0.000000 0.000000
vn 1.000000 0.000000 0.000000
vn 1.000000 0.000000 0.000000
vn 1.000000 0.000000 0.000000
vn 1.000000 0.000000 0.000000
vn 0.000000 1.000000 0.000000
vn 0.000000 1.000000 0.000000
vn 0.000000 1.000000 0.000000
vn 0.000000 1.000000 0.000000
vn 0.000000 -1.000000 0.000003
vn 0.000000 -1.000000 0.000003
vn 0.000000 -1.000000 0.000003
vn 0.000000 -1.000000 0.000003
vn 0.000000 -1.000000 -0.000003
vn 0.000000 -1.000000 -0.000003
vn 0.000000 -1.000000 -0.000003
vn 0.000000 -1.000000 -0.000003
vn 0.000000 -1.000000 0.000003
vn 0.000000 -1.000000 0.000003
vn 0.000000 -1.000000 -0.000003
vn 0.000000 -1.000000 -0.000003
vn 0.000000 -1.000000 -0.000003
vn 0.000000 -1.000000 -0.000003
vn 0.000000 -1.000000 0.000003
vn 0.000000 -1.000000 0.000003
vn 0.000000 1.000000 0.000002
vn 0.000000 1.000000 0.000002
vn 0.000000 1.000000 0.000002
vn 0.000000 1.000000 0.000002
vn 0.000000 1.000000 -0.000002
vn 0.000000 1.000000 -0.000002
vn 0.000000 1.000000 -0.000002
vn 0.000000 1.000000 -0.000002
vn 0.000000 1.000000 0.000002
vn 0.000000 1.000000 -0.000002
vn 0.000000 1.000000 -0.000002
vn 0.000000 1.000000 0.000002
vn 0.000000 1.000000 -0.000002
vn 0.000000 1.000000 0.000002
vn 0.000000 1.000000 0.000002
vn 0.000000 1.000000 -0.000002
vn 0.000000 0.000000 -1.000000
vn 0.000000 0.000000 -1.000000
vn 0.000000 0.000000 -1.000000
vn 0.000000 0.000000 -1.000000
vn 0.000000 0.000000 1.000000
vn 0.000000 0.000000 1.000000
vn 0.000000 0.000000 1.000000
vn 0.000000 0.000000 1.000000
vn 0.000000 0.000000 1.000000
vn 0.000000 0.000000 1.000000
vn 0.000000 0.000000 1.000000
vn 0.000000 0.000000 1.000000
vn 0.000000 0.000000 -1.000000
vn 0.000000 0.000000 -1.000000
vn 0.000000 0.000000 -1.000000
vn 0.000000 0.000000 -1.000000
vn 1.000000 0.000000 0.000000
vn 1.000000 0.000000 0.000000
vn 1.000000 0.000000 0.000000
vn 1.000000 0.000000 0.000000
vn -1.000000 0.000000 0.000000
vn -1.000000 0.000000 0.000000
vn -1.000000 0.000000 0.000000
vn -1.000000 0.000000 0.000000
vn -1.000000 0.000000 0.000000
vn -1.000000 0.000000 0.000000
vn -1.000000 0.000000 0.000000
vn -1.000000 0.000000 0.000000
vn 1.000000 0.000000 0.000000
vn 1.000000 0.000000 0.000000
vn 1.000000 0.000000 0.000000
vn 1.000000 0.000000 0.000000
vn 0.000000 1.000000 0.000000
vn 0.000000 1.000000 0.000000
vn 0.000000 1.000000 0.000000
vn 0.000000 1.000000 0.000000
vn 0.000000 -1.000000 0.000000
vn 0.000000 -1.000000 0.000000
vn 0.000000 -1.000000 0.000000
vn 0.000000 -1.000000 0.000000
vn 0.000000 -1.000000 0.000000
vn 0.000000 -1.000000 0.000000
vn 0.000000 -1.000000 0.000000
vn 0.000000 -1.000000 0.000000
vn 0.000000 -1.000000 0.000000
vn 0.000000 -1.000000 0.000000
vn 0.000000 -1.000000 0.000000
vn 0.000000 -1.000000 0.000000
vn 0.000000 -1.000000 0.000000
vn 0.000000 -1.000000 0.000000
vn 0.000000 -1.000000 0.000000
vn 0.000000 -1.000000 0.000000
vn 0.000000 1.000000 -0.000001
vn 0.000000 1.000000 -0.000001
vn 0.000000 1.000000 -0.000001
vn 0.000000 1.000000 -0.000001
vn 0.000000 1.000000 0.000001
vn 0.000000 1.000000 0.000001
vn 0.000000 1.000000 0.000001
vn 0.000000 1.000000 0.000001
vn 0.000000 1.000000 -0.000001
vn 0.000000 1.000000 -0.000001
vn 0.000000 1.000000 0.000001
vn 0.000000 1.000000 0.000001
vn 0.000000 1.000000 0.000001
vn 0.000000 1.000000 0.000001
vn 0.000000 1.000000 -0.000001
vn 0.000000 1.000000 -0.000001
vn 0.000000 0.000000 1.000000
vn 0.000000 0.000000 1.000000
vn 0.000000 0.000000 1.000000
vn 0.000000 0.000000 1.000000
vn 0.000000 0.000000 -1.000000
vn 0.000000 0.000000 -1.000000
vn 0.000000 0.000000 -1.000000
vn 0.000000 0.000000 -1.000000
vn 0.000000 0.000000 -1.000000
vn 0.000000 0.000000 -1.000000
vn 0.000000 0.000000 -1.000000
vn 0.000000 0.000000 -1.000000
vn 0.000000 0.000000 1.000000
vn 0.000000 0.000000 1.000000
vn 0.000000 0.000000 1.000000
vn 0.000000 0.000000 1.000000
vn 1.000000 0.000000 0.000000
vn 1.000000 0.000000 0.000000
vn 1.000000 0.000000 0.000000
vn 1.000000 0.000000 0.000000
vn -1.000000 0.000000 0.000000
vn -1.000000 0.000000 0.000000
vn -1.000000 0.000000 0.000000
vn -1.000000 0.000000 0.000000
vn -1.000000 0.000000 0.000000
vn -1.000000 0.000000 0.000000
vn -1.000000 0.000000 0.000000
vn -1.000000 0.000000 0.000000
vn 1.000000 0.000000 0.000000
vn 1.000000 0.000000 0.000000
vn 1.000000 0.000000 0.000000
vn 1.000000 0.000000 0.000000
vn 0.000000 1.000000 0.000000
vn 0.000000 1.000000 0.000000
vn 0.000000 1.000000 0.000000
vn 0.000000 1.000000 0.000000
vn 0.000000 -1.000000 0.000000
vn 0.000000 -1.000000 0.000000
vn 0.000000 -1.000000 0.000000
vn 0.000000 -1.000000 0.000000
vn 0.000000 -1.000000 0.000000
vn 0.000000 -1.000000 0.000000
vn 0.000000 -1.000000 0.000000
vn 0.000000 -1.000000 0.000000
vn 0.000000 -1.000000 0.000000
vn 0.000000 -1.000000 0.000000
vn 0.000000 -1.000000 0.000000
vn 0.000000 -1.000000 0.000000
vn 0.000000 -1.000000 0.000000
vn 0.000000 -1.000000 0.000000
vn 0.000000 -1.000000 0.000000
vn 0.000000 -1.000000 0.000000
vn 0.000000 1.000000 0.000000
vn 0.000000 1.000000 0.000000
vn 0.000000 1.000000 0.000000
vn 0.000000 1.000000 0.000000
vn 0.000000 1.000000 0.000000
vn 0.000000 1.000000 0.000000
vn 0.000000 1.000000 0.000000
vn 0.000000 1.000000 0.000000
vn 0.000000 1.000000 0.000000
vn 0.000000 1.000000 0.000000
vn 0.000000 1.000000 0.000000
vn 0.000000 1.000000 0.000000
vn 0.000000 1.000000 0.000000
vn 0.000000 1.000000 0.000000
vn 0.000000 1.000000 0.000000
vn 0.000000 1.000000 0.000000
vn 0.000000 0.000000 1.000000
vn 0.000000 0.000000 1.000000
vn 0.000000 0.000000 1.000000
vn 0.000000 0.000000 1.000000
vn 0.000000 0.000000 -1.000000
vn 0.000000 0.000000 -1.000000
vn 0.000000 0.000000 -1.000000
vn 0.000000 0.000000 -1.000000
vn 0.000000 0.000000 -1.000000
vn 0.000000 0.000000 -1.000000
vn 0.000000 0.000000 -1.000000
vn 0.000000 0.000000 -1.000000
vn 0.000000 0.000000 1.000000
vn 0.000000 0.000000 1.000000
vn 0.000000 0.000000 1.000000
vn 0.000000 0.000000 1.000000
vn -1.000000 0.000000 0.000000
vn -1.000000 0.000000 0.000000
vn -1.000000 0.000000 0.000000
vn -1.000000 0.000000 0.000000
vn 1.000000 0.000000 0.000000
vn 1.000000 0.000000 0.000000
vn 1.000000 0.000000 0.000000
vn 1.000000 0.000000 0.000000
vn 1.000000 0.000000 0.000000
vn 1.000000 0.000000 0.000000
vn 1.000000 0.000000 0.000000
vn 1.000000 0.000000 0.000000
vn -1.000000 0.000000 0.000000
vn -1.000000 0.000000 0.000000
vn -1.000000 0.000000 0.000000
vn -1.000000 0.000000 0.000000
vn 0.000000 1.000000 0.000000
vn 0.000000 1.000000 0.000000
vn 0.000000 1.000000 0.000000
vn 0.000000 1.000000 0.000000
vn 0.000000 -1.000000 0.000000
vn 0.000000 -1.000000 0.000000
vn 0.000000 -1.000000 0.000000
vn 0.000000 -1.000000 0.000000
vn 0.000000 -1.000000 0.000000
vn 0.000000 -1.000000 0.000000
vn 0.000000 -1.000000 0.000000
vn 0.000000 -1.000000 0.000000
vn 0.000000 -1.000000 0.000000
vn 0.000000 -1.000000 0.000000
vn 0.000000 -1.000000 0.000000
vn 0.000000 -1.000000 0.000000
vn 0.000000 -1.000000 0.000000
vn 0.000000 -1.000000 0.000000
vn 0.000000 -1.000000 0.000000
vn 0.000000 -1.000000 0.000000
vn 0.000000 1.000000 0.000000
vn 0.000000 1.000000 0.000000
vn 0.000000 1.000000 0.000000
vn 0.000000 1.000000 0.000000
vn 0.000000 1.000000 0.000000
vn 0.000000 1.000000 0.000000
vn 0.000000 1.000000 0.000000
vn 0.000000 1.000000 0.000000
vn 0.000000 1.000000 0.000000
vn 0.000000 1.000000 0.000000
vn 0.000000 1.000000 0.000000
vn 0.000000 1.000000 0.000000
vn 0.000000 1.000000 0.000000
vn 0.000000 1.000000 0.000000
vn 0.000000 1.000000 0.000000
vn 0.000000 1.000000 0.000000
vn 0.000000 0.000000 -1.000000
vn 0.000000 0.000000 -1.000000
vn 0.000000 0.000000 -1.000000
vn 0.000000 0.000000 -1.000000
vn 0.000000 0.000000 1.000000
vn 0.000000 0.000000 1.000000
vn 0.000000 0.000000 1.000000
vn 0.000000 0.000000 1.000000
vn 0.000000 0.000000 1.000000
vn 0.000000 0.000000 1.000000
vn 0.000000 0.000000 1.000000
vn 0.000000 0.000000 1.000000
vn 0.000000 0.000000 -1.000000
vn 0.000000 0.000000 -1.000000
vn 0.000000 0.000000 -1.000000
vn 0.000000 0.000000 -1.000000
vn 1.000000 0.000000 0.000000
vn 1.000000 0.000000 0.000000
vn 1.000000 0.000000 0.000000
vn 1.000000 0.000000 0.000000
vn -1.000000 0.000000 0.000000
vn -1.000000 0.000000 0.000000
vn -1.000000 0.000000 0.000000
vn -1.000000 0.000000 0.000000
vn -1.000000 0.000000 0.000000
vn -1.000000 0.000000 0.000000
vn -1.000000 0.000000 0.000000
vn -1.000000 0.000000 0.000000
vn 1.000000 0.000000 0.000000
vn 1.000000 0.000000 0.000000
vn 1.000000 0.000000 0.000000
vn 1.000000 0.000000 0.000000
s off
g eb_metal_shelf_01:eb_metal_shelf_01
usemtl blinn3SG
f 11/1/1 1/2/2 2/3/3 12/4/4
f 12/4/4 2/3/3 1/2/2 11/1/1
f 12/4/5 2/3/6 3/5/7 13/6/8
f 13/6/8 3/5/7 2/3/6 12/4/5
f 13/6/9 3/5/10 4/7/11 14/8/12
f 14/8/12 4/7/11 3/5/10 13/6/9
f 14/8/13 4/7/14 5/9/15 15/10/16
f 15/10/16 5/9/15 4/7/14 14/8/13
f 15/10/17 5/9/18 6/11/19 16/12/20
f 16/12/20 6/11/19 5/9/18 15/10/17
f 16/12/21 6/11/22 7/13/23 17/14/24
f 17/14/24 7/13/23 6/11/22 16/12/21
f 17/14/25 7/13/26 8/15/27 18/16/28
f 18/16/28 8/15/27 7/13/26 17/14/25
f 18/16/29 8/15/30 9/17/31 19/18/32
f 19/18/32 9/17/31 8/15/30 18/16/29
f 19/18/33 9/17/34 10/19/35 20/20/36
f 20/20/36 10/19/35 9/17/34 19/18/33
f 20/20/37 10/19/38 1/21/39 11/22/40
f 11/22/40 1/21/39 10/19/38 20/20/37
f 2/23/41 1/24/42 21/25/43
f 21/25/43 1/24/42 2/23/41
f 3/26/44 2/23/45 21/25/46
f 21/25/46 2/23/45 3/26/44
f 4/27/47 3/26/48 21/25/49
f 21/25/49 3/26/48 4/27/47
f 5/28/50 4/27/51 21/25/52
f 21/25/52 4/27/51 5/28/50
f 6/29/53 5/28/54 21/25/55
f 21/25/55 5/28/54 6/29/53
f 7/30/56 6/29/57 21/25/58
f 21/25/58 6/29/57 7/30/56
f 8/31/59 7/30/60 21/25/61
f 21/25/61 7/30/60 8/31/59
f 9/32/62 8/31/63 21/25/64
f 21/25/64 8/31/63 9/32/62
f 10/33/65 9/32/66 21/25/67
f 21/25/67 9/32/66 10/33/65
f 1/24/68 10/33/69 21/25/70
f 21/25/70 10/33/69 1/24/68
f 22/34/71 11/35/72 12/36/73
f 12/36/73 11/35/72 22/34/71
f 22/34/74 12/36/75 13/37/76
f 13/37/76 12/36/75 22/34/74
f 22/34/77 13/37/78 14/38/79
f 14/38/79 13/37/78 22/34/77
f 22/34/80 14/38/81 15/39/82
f 15/39/82 14/38/81 22/34/80
f 22/34/83 15/39/84 16/40/85
f 16/40/85 15/39/84 22/34/83
f 22/34/86 16/40/87 17/41/88
f 17/41/88 16/40/87 22/34/86
f 22/34/89 17/41/90 18/42/91
f 18/42/91 17/41/90 22/34/89
f 22/34/92 18/42/93 19/43/94
f 19/43/94 18/42/93 22/34/92
f 22/34/95 19/43/96 20/44/97
f 20/44/97 19/43/96 22/34/95
f 22/34/98 20/44/99 11/35/100
f 11/35/100 20/44/99 22/34/98
f 33/45/101 23/46/102 24/47/103 34/48/104
f 34/48/104 24/47/103 23/46/102 33/45/101
f 34/48/105 24/47/106 25/49/107 35/50/108
f 35/50/108 25/49/107 24/47/106 34/48/105
f 35/50/109 25/49/110 26/51/111 36/52/112
f 36/52/112 26/51/111 25/49/110 35/50/109
f 36/52/113 26/51/114 27/53/115 37/54/116
f 37/54/116 27/53/115 26/51/114 36/52/113
f 37/54/117 27/53/118 28/55/119 38/56/120
f 38/56/120 28/55/119 27/53/118 37/54/117
f 38/56/121 28/55/122 29/57/123 39/58/124
f 39/58/124 29/57/123 28/55/122 38/56/121
f 39/58/125 29/57/126 30/59/127 40/60/128
f 40/60/128 30/59/127 29/57/126 39/58/125
f 40/60/129 30/59/130 31/61/131 41/62/132
f 41/62/132 31/61/131 30/59/130 40/60/129
f 41/62/133 31/61/134 32/63/135 42/64/136
f 42/64/136 32/63/135 31/61/134 41/62/133
f 42/64/137 32/63/138 23/65/139 33/66/140
f 33/66/140 23/65/139 32/63/138 42/64/137
f 24/67/141 23/68/142 43/69/143
f 43/69/143 23/68/142 24/67/141
f 25/70/144 24/67/145 43/69/146
f 43/69/146 24/67/145 25/70/144
f 26/71/147 25/70/148 43/69/149
f 43/69/149 25/70/148 26/71/147
f 27/72/150 26/71/151 43/69/152
f 43/69/152 26/71/151 27/72/150
f 28/73/153 27/72/154 43/69/155
f 43/69/155 27/72/154 28/73/153
f 29/74/156 28/73/157 43/69/158
f 43/69/158 28/73/157 29/74/156
f 30/75/159 29/74/160 43/69/161
f 43/69/161 29/74/160 30/75/159
f 31/76/162 30/75/163 43/69/164
f 43/69/164 30/75/163 31/76/162
f 32/77/165 31/76/166 43/69/167
f 43/69/167 31/76/166 32/77/165
f 23/68/168 32/77/169 43/69/170
f 43/69/170 32/77/169 23/68/168
f 44/78/171 33/79/172 34/80/173
f 34/80/173 33/79/172 44/78/171
f 44/78/174 34/80/175 35/81/176
f 35/81/176 34/80/175 44/78/174
f 44/78/177 35/81/178 36/82/179
f 36/82/179 35/81/178 44/78/177
f 44/78/180 36/82/181 37/83/182
f 37/83/182 36/82/181 44/78/180
f 44/78/183 37/83/184 38/84/185
f 38/84/185 37/83/184 44/78/183
f 44/78/186 38/84/187 39/85/188
f 39/85/188 38/84/187 44/78/186
f 44/78/189 39/85/190 40/86/191
f 40/86/191 39/85/190 44/78/189
f 44/78/192 40/86/193 41/87/194
f 41/87/194 40/86/193 44/78/192
f 44/78/195 41/87/196 42/88/197
f 42/88/197 41/87/196 44/78/195
f 44/78/198 42/88/199 33/79/200
f 33/79/200 42/88/199 44/78/198
f 55/89/201 45/90/202 46/91/203 56/92/204
f 56/92/204 46/91/203 45/90/202 55/89/201
f 56/92/205 46/91/206 47/93/207 57/94/208
f 57/94/208 47/93/207 46/91/206 56/92/205
f 57/94/209 47/93/210 48/95/211 58/96/212
f 58/96/212 48/95/211 47/93/210 57/94/209
f 58/96/213 48/95/214 49/97/215 59/98/216
f 59/98/216 49/97/215 48/95/214 58/96/213
f 59/98/217 49/97/218 50/99/219 60/100/220
f 60/100/220 50/99/219 49/97/218 59/98/217
f 60/100/221 50/99/222 51/101/223 61/102/224
f 61/102/224 51/101/223 50/99/222 60/100/221
f 61/102/225 51/101/226 52/103/227 62/104/228
f 62/104/228 52/103/227 51/101/226 61/102/225
f 62/104/229 52/103/230 53/105/231 63/106/232
f 63/106/232 53/105/231 52/103/230 62/104/229
f 63/106/233 53/105/234 54/107/235 64/108/236
f 64/108/236 54/107/235 53/105/234 63/106/233
f 64/108/237 54/107/238 45/109/239 55/110/240
f 55/110/240 45/109/239 54/107/238 64/108/237
f 46/111/241 45/112/242 65/113/243
f 65/113/243 45/112/242 46/111/241
f 47/114/244 46/111/245 65/113/246
f 65/113/246 46/111/245 47/114/244
f 48/115/247 47/114/248 65/113/249
f 65/113/249 47/114/248 48/115/247
f 49/116/250 48/115/251 65/113/252
f 65/113/252 48/115/251 49/116/250
f 50/117/253 49/116/254 65/113/255
f 65/113/255 49/116/254 50/117/253
f 51/118/256 50/117/257 65/113/258
f 65/113/258 50/117/257 51/118/256
f 52/119/259 51/118/260 65/113/261
f 65/113/261 51/118/260 52/119/259
f 53/120/262 52/119/263 65/113/264
f 65/113/264 52/119/263 53/120/262
f 54/121/265 53/120/266 65/113/267
f 65/113/267 53/120/266 54/121/265
f 45/112/268 54/121/269 65/113/270
f 65/113/270 54/121/269 45/112/268
f 66/122/271 55/123/272 56/124/273
f 56/124/273 55/123/272 66/122/271
f 66/122/274 56/124/275 57/125/276
f 57/125/276 56/124/275 66/122/274
f 66/122/277 57/125/278 58/126/279
f 58/126/279 57/125/278 66/122/277
f 66/122/280 58/126/281 59/127/282
f 59/127/282 58/126/281 66/122/280
f 66/122/283 59/127/284 60/128/285
f 60/128/285 59/127/284 66/122/283
f 66/122/286 60/128/287 61/129/288
f 61/129/288 60/128/287 66/122/286
f 66/122/289 61/129/290 62/130/291
f 62/130/291 61/129/290 66/122/289
f 66/122/292 62/130/293 63/131/294
f 63/131/294 62/130/293 66/122/292
f 66/122/295 63/131/296 64/132/297
f 64/132/297 63/131/296 66/122/295
f 66/122/298 64/132/299 55/123/300
f 55/123/300 64/132/299 66/122/298
f 77/133/301 67/134/302 68/135/303 78/136/304
f 78/136/304 68/135/303 67/134/302 77/133/301
f 78/136/305 68/135/306 69/137/307 79/138/308
f 79/138/308 69/137/307 68/135/306 78/136/305
f 79/138/309 69/137/310 70/139/311 80/140/312
f 80/140/312 70/139/311 69/137/310 79/138/309
f 80/140/313 70/139/314 71/141/315 81/142/316
f 81/142/316 71/141/315 70/139/314 80/140/313
f 81/142/317 71/141/318 72/143/319 82/144/320
f 82/144/320 72/143/319 71/141/318 81/142/317
f 82/144/321 72/143/322 73/145/323 83/146/324
f 83/146/324 73/145/323 72/143/322 82/144/321
f 83/146/325 73/145/326 74/147/327 84/148/328
f 84/148/328 74/147/327 73/145/326 83/146/325
f 84/148/329 74/147/330 75/149/331 85/150/332
f 85/150/332 75/149/331 74/147/330 84/148/329
f 85/150/333 75/149/334 76/151/335 86/152/336
f 86/152/336 76/151/335 75/149/334 85/150/333
f 86/152/337 76/151/338 67/153/339 77/154/340
f 77/154/340 67/153/339 76/151/338 86/152/337
f 68/155/341 67/156/342 87/157/343
f 87/157/343 67/156/342 68/155/341
f 69/158/344 68/155/345 87/157/346
f 87/157/346 68/155/345 69/158/344
f 70/159/347 69/158/348 87/157/349
f 87/157/349 69/158/348 70/159/347
f 71/160/350 70/159/351 87/157/352
f 87/157/352 70/159/351 71/160/350
f 72/161/353 71/160/354 87/157/355
f 87/157/355 71/160/354 72/161/353
f 73/162/356 72/161/357 87/157/358
f 87/157/358 72/161/357 73/162/356
f 74/163/359 73/162/360 87/157/361
f 87/157/361 73/162/360 74/163/359
f 75/164/362 74/163/363 87/157/364
f 87/157/364 74/163/363 75/164/362
f 76/165/365 75/164/366 87/157/367
f 87/157/367 75/164/366 76/165/365
f 67/156/368 76/165/369 87/157/370
f 87/157/370 76/165/369 67/156/368
f 88/166/371 77/167/372 78/168/373
f 78/168/373 77/167/372 88/166/371
f 88/166/374 78/168/375 79/169/376
f 79/169/376 78/168/375 88/166/374
f 88/166/377 79/169/378 80/170/379
f 80/170/379 79/169/378 88/166/377
f 88/166/380 80/170/381 81/171/382
f 81/171/382 80/170/381 88/166/380
f 88/166/383 81/171/384 82/172/385
f 82/172/385 81/171/384 88/166/383
f 88/166/386 82/172/387 83/173/388
f 83/173/388 82/172/387 88/166/386
f 88/166/389 83/173/390 84/174/391
f 84/174/391 83/173/390 88/166/389
f 88/166/392 84/174/393 85/175/394
f 85/175/394 84/174/393 88/166/392
f 88/166/395 85/175/396 86/176/397
f 86/176/397 85/175/396 88/166/395
f 88/166/398 86/176/399 77/167/400
f 77/167/400 86/176/399 88/166/398
f 89/177/401 90/178/402 91/179/403 92/180/404
f 92/180/404 91/179/403 90/178/402 89/177/401
f 102/181/405 104/182/406 103/183/407 101/184/408
f 101/184/408 103/183/407 104/182/406 102/181/405
f 105/185/409 108/186/410 107/187/411 106/188/412
f 106/188/412 107/187/411 108/186/410 105/185/409
f 101/189/413 103/190/414 108/191/415 105/192/416
f 105/192/416 108/191/415 103/190/414 101/189/413
f 106/193/417 107/194/418 104/195/419 102/196/420
f 102/196/420 104/195/419 107/194/418 106/193/417
f 94/197/421 93/198/422 97/199/423 98/200/424
f 98/200/424 97/199/423 93/198/422 94/197/421
f 95/201/425 96/202/426 100/203/427 99/204/428
f 99/204/428 100/203/427 96/202/426 95/201/425
f 93/205/429 95/206/430 99/207/431 97/208/432
f 97/208/432 99/207/431 95/206/430 93/205/429
f 96/209/433 94/210/434 98/211/435 100/212/436
f 100/212/436 98/211/435 94/210/434 96/209/433
f 94/213/437 102/214/438 101/215/439 93/216/440
f 93/216/440 101/215/439 102/214/438 94/213/437
f 97/217/441 103/218/442 104/219/443 98/220/444
f 98/220/444 104/219/443 103/218/442 97/217/441
f 95/221/445 105/222/446 106/223/447 96/224/448
f 96/224/448 106/223/447 105/222/446 95/221/445
f 100/225/449 107/226/450 108/227/451 99/228/452
f 99/228/452 108/227/451 107/226/450 100/225/449
f 93/229/453 101/230/454 105/231/455 95/232/456
f 95/232/456 105/231/455 101/230/454 93/229/453
f 99/233/457 108/234/458 103/235/459 97/236/460
f 97/236/460 103/235/459 108/234/458 99/233/457
f 96/237/461 106/238/462 102/239/463 94/240/464
f 94/240/464 102/239/463 106/238/462 96/237/461
f 98/241/465 104/242/466 107/243/467 100/244/468
f 100/244/468 107/243/467 104/242/466 98/241/465
f 109/245/469 110/246/470 111/247/471 112/248/472
f 112/248/472 111/247/471 110/246/470 109/245/469
f 122/249/473 124/250/474 123/251/475 121/252/476
f 121/252/476 123/251/475 124/250/474 122/249/473
f 125/253/477 128/254/478 127/255/479 126/256/480
f 126/256/480 127/255/479 128/254/478 125/253/477
f 121/257/481 123/258/482 128/259/483 125/260/484
f 125/260/484 128/259/483 123/258/482 121/257/481
f 126/261/485 127/262/486 124/263/487 122/264/488
f 122/264/488 124/263/487 127/262/486 126/261/485
f 114/265/489 113/266/490 117/267/491 118/268/492
f 118/268/492 117/267/491 113/266/490 114/265/489
f 115/269/493 116/270/494 120/271/495 119/272/496
f 119/272/496 120/271/495 116/270/494 115/269/493
f 113/273/497 115/274/498 119/275/499 117/276/500
f 117/276/500 119/275/499 115/274/498 113/273/497
f 116/277/501 114/278/502 118/279/503 120/280/504
f 120/280/504 118/279/503 114/278/502 116/277/501
f 114/281/505 122/282/506 121/283/507 113/284/508
f 113/284/508 121/283/507 122/282/506 114/281/505
f 117/285/509 123/286/510 124/287/511 118/288/512
f 118/288/512 124/287/511 123/286/510 117/285/509
f 115/289/513 125/290/514 126/291/515 116/292/516
f 116/292/516 126/291/515 125/290/514 115/289/513
f 120/293/517 127/294/518 128/295/519 119/296/520
f 119/296/520 128/295/519 127/294/518 120/293/517
f 113/297/521 121/298/522 125/299/523 115/300/524
f 115/300/524 125/299/523 121/298/522 113/297/521
f 119/301/525 128/302/526 123/303/527 117/304/528
f 117/304/528 123/303/527 128/302/526 119/301/525
f 116/305/529 126/306/530 122/307/531 114/308/532
f 114/308/532 122/307/531 126/306/530 116/305/529
f 118/309/533 124/310/534 127/311/535 120/312/536
f 120/312/536 127/311/535 124/310/534 118/309/533
f 129/313/537 132/314/538 131/315/539 130/316/540
f 130/316/540 131/315/539 132/314/538 129/313/537
f 142/317/541 141/318/542 143/319/543 144/320/544
f 144/320/544 143/319/543 141/318/542 142/317/541
f 145/321/545 146/322/546 147/323/547 148/324/548
f 148/324/548 147/323/547 146/322/546 145/321/545
f 141/325/549 145/326/550 148/327/551 143/328/552
f 143/328/552 148/327/551 145/326/550 141/325/549
f 146/329/553 142/330/554 144/331/555 147/332/556
f 147/332/556 144/331/555 142/330/554 146/329/553
f 134/333/557 138/334/558 137/335/559 133/336/560
f 133/336/560 137/335/559 138/334/558 134/333/557
f 135/337/561 139/338/562 140/339/563 136/340/564
f 136/340/564 140/339/563 139/338/562 135/337/561
f 133/341/565 137/342/566 139/343/567 135/344/568
f 135/344/568 139/343/567 137/342/566 133/341/565
f 136/345/569 140/346/570 138/347/571 134/348/572
f 134/348/572 138/347/571 140/346/570 136/345/569
f 134/349/573 133/350/574 141/351/575 142/352/576
f 142/352/576 141/351/575 133/350/574 134/349/573
f 137/353/577 138/354/578 144/355/579 143/356/580
f 143/356/580 144/355/579 138/354/578 137/353/577
f 135/357/581 136/358/582 146/359/583 145/360/584
f 145/360/584 146/359/583 136/358/582 135/357/581
f 140/361/585 139/362/586 148/363/587 147/364/588
f 147/364/588 148/363/587 139/362/586 140/361/585
f 133/365/589 135/366/590 145/367/591 141/368/592
f 141/368/592 145/367/591 135/366/590 133/365/589
f 139/369/593 137/370/594 143/371/595 148/372/596
f 148/372/596 143/371/595 137/370/594 139/369/593
f 136/373/597 134/374/598 142/375/599 146/376/600
f 146/376/600 142/375/599 134/374/598 136/373/597
f 138/377/601 140/378/602 147/379/603 144/380/604
f 144/380/604 147/379/603 140/378/602 138/377/601
f 149/381/605 150/382/606 151/383/607 152/384/608
f 152/384/608 151/383/607 150/382/606 149/381/605
f 162/385/609 164/386/610 163/387/611 161/388/612
f 161/388/612 163/387/611 164/386/610 162/385/609
f 165/389/613 168/390/614 167/391/615 166/392/616
f 166/392/616 167/391/615 168/390/614 165/389/613
f 161/393/617 163/394/618 168/395/619 165/396/620
f 165/396/620 168/395/619 163/394/618 161/393/617
f 166/397/621 167/398/622 164/399/623 162/400/624
f 162/400/624 164/399/623 167/398/622 166/397/621
f 154/401/625 153/402/626 157/403/627 158/404/628
f 158/404/628 157/403/627 153/402/626 154/401/625
f 155/405/629 156/406/630 160/407/631 159/408/632
f 159/408/632 160/407/631 156/406/630 155/405/629
f 153/409/633 155/410/634 159/411/635 157/412/636
f 157/412/636 159/411/635 155/410/634 153/409/633
f 156/413/637 154/414/638 158/415/639 160/416/640
f 160/416/640 158/415/639 154/414/638 156/413/637
f 154/417/641 162/418/642 161/419/643 153/420/644
f 153/420/644 161/419/643 162/418/642 154/417/641
f 157/421/645 163/422/646 164/423/647 158/424/648
f 158/424/648 164/423/647 163/422/646 157/421/645
f 155/425/649 165/426/650 166/427/651 156/428/652
f 156/428/652 166/427/651 165/426/650 155/425/649
f 160/429/653 167/430/654 168/431/655 159/432/656
f 159/432/656 168/431/655 167/430/654 160/429/653
f 153/433/657 161/434/658 165/435/659 155/436/660
f 155/436/660 165/435/659 161/434/658 153/433/657
f 159/437/661 168/438/662 163/439/663 157/440/664
f 157/440/664 163/439/663 168/438/662 159/437/661
f 156/441/665 166/442/666 162/443/667 154/444/668
f 154/444/668 162/443/667 166/442/666 156/441/665
f 158/445/669 164/446/670 167/447/671 160/448/672
f 160/448/672 167/447/671 164/446/670 158/445/669
f 169/449/673 170/450/674 171/451/675 172/452/676
f 172/452/676 171/451/675 170/450/674 169/449/673
f 182/453/677 184/454/678 183/455/679 181/456/680
f 181/456/680 183/455/679 184/454/678 182/453/677
f 185/457/681 188/458/682 187/459/683 186/460/684
f 186/460/684 187/459/683 188/458/682 185/457/681
f 181/461/685 183/462/686 188/463/687 185/464/688
f 185/464/688 188/463/687 183/462/686 181/461/685
f 186/465/689 187/466/690 184/467/691 182/468/692
f 182/468/692 184/467/691 187/466/690 186/465/689
f 174/469/693 173/470/694 177/471/695 178/472/696
f 178/472/696 177/471/695 173/470/694 174/469/693
f 175/473/697 176/474/698 180/475/699 179/476/700
f 179/476/700 180/475/699 176/474/698 175/473/697
f 173/477/701 175/478/702 179/479/703 177/480/704
f 177/480/704 179/479/703 175/478/702 173/477/701
f 176/481/705 174/482/706 178/483/707 180/484/708
f 180/484/708 178/483/707 174/482/706 176/481/705
f 174/485/709 182/486/710 181/487/711 173/488/712
f 173/488/712 181/487/711 182/486/710 174/485/709
f 177/489/713 183/490/714 184/491/715 178/492/716
f 178/492/716 184/491/715 183/490/714 177/489/713
f 175/493/717 185/494/718 186/495/719 176/496/720
f 176/496/720 186/495/719 185/494/718 175/493/717
f 180/497/721 187/498/722 188/499/723 179/500/724
f 179/500/724 188/499/723 187/498/722 180/497/721
f 173/501/725 181/502/726 185/503/727 175/504/728
f 175/504/728 185/503/727 181/502/726 173/501/725
f 179/505/729 188/506/730 183/507/731 177/508/732
f 177/508/732 183/507/731 188/506/730 179/505/729
f 176/509/733 186/510/734 182/511/735 174/512/736
f 174/512/736 182/511/735 186/510/734 176/509/733
f 178/513/737 184/514/738 187/515/739 180/516/740
f 180/516/740 187/515/739 184/514/738 178/513/737
